# xmcd
#
# Track frame offsets: 
#        150
#        10200
#        19970
#        29590
#        39307
#        50935
#        60090
#        70702
#        81912
#        95152
#        106960
#        116592
#        126742
#        134665
#        146257
#        158512
#        170765
#        182415
#        192360
#        202805
#        215780
#        228052
#        239332
#        250405
#        261512
#        273517
#        284092
#        296445
#        306687
#
# Disc length: 4269 seconds
#
# Revision: 0
# Processed by: cddbd v1.5.2PL0 Copyright (c) Steve Scherf et al.
# Submitted via: ExactAudioCopy v0.95b3
#
DISCID=c210ab1d
DTITLE=Johnny Paycheck aka Donny Young - Shakin' The Blues
DYEAR=2006
DGENRE=Country
TTITLE0=I Guess I Had It Coming
TTITLE1=It's Been A Long, Long Time
TTITLE2=On This Mountain Top
TTITLE3=The Old Man And The River
TTITLE4=Story Behind The Photograph
TTITLE5=Pictures Can't Talk Back
TTITLE6=Shakin' The Blues
TTITLE7=Miracle Of Love
TTITLE8=Go Ring The Bells
TTITLE9=One Day A Week
TTITLE10=I'm Out Of My Mind
TTITLE11=Second Thought
TTITLE12=Big Swamp Land
TTITLE13=I'd Come Back To Me
TTITLE14=Love Problems
TTITLE15=Down To My Last Dime
TTITLE16=Not Much I Don't
TTITLE17=Don't You Get Lonesome Without Me
TTITLE18=I'm Glad To Have Her Back Again
TTITLE19=The Same Old Me
TTITLE20=A Woman's Intuition
TTITLE21=Why I'm Walkin'
TTITLE22=Accidentally On Purpose
TTITLE23=Above And Beyond
TTITLE24=Your Old Used To Be
TTITLE25=Window Up Above
TTITLE26=Heart Over Mind
TTITLE27=Hello Walls
TTITLE28=I Love You Best Of All
EXTD=
EXTT0=
EXTT1=
EXTT2=
EXTT3=
EXTT4=
EXTT5=
EXTT6=
EXTT7=
EXTT8=
EXTT9=
EXTT10=
EXTT11=
EXTT12=
EXTT13=
EXTT14=
EXTT15=
EXTT16=
EXTT17=
EXTT18=
EXTT19=
EXTT20=
EXTT21=
EXTT22=
EXTT23=
EXTT24=
EXTT25=
EXTT26=
EXTT27=
EXTT28=
PLAYORDER=
